<svg xmlns="http://www.w3.org/2000/svg" xmlns:xlink="http://www.w3.org/1999/xlink" style="vertical-align:-2.38ex" width="45.203ex" height="6.259ex" viewBox="0 -1670.4 19462.4 2695"><defs><path id="a" stroke-width="1" d="M42 46h14q39 0 47 14v64q0 19 1 43t0 50 0 55 0 57v213q0 26-1 44t0 17q-3 19-14 25t-45 9H26v23q0 23 2 23l10 1q10 1 29 2t37 2 37 2 30 3 11 1h3V379q0-317 1-319 4-8 12-11 21-3 49-3h16V0h-8l-23 1q-23 1-49 1t-38 1-38 0-50-2L34 0h-8v46h16z"/><path id="b" stroke-width="1" d="M28 214q0 95 65 164t157 70q90 0 155-68t66-165q0-95-64-160T250-10q-97 0-159 67T28 214zM250 30q122 0 122 163v57q0 22-1 38t-7 38-16 36-31 28-49 20q-5 1-16 1-30 0-57-12-43-22-56-61t-13-92v-20q0-96 19-135 32-61 105-61z"/><path id="c" stroke-width="1" d="M329 409q44 44 100 44 30 0 43-19t13-38q0-14-9-25t-27-11q-33 0-37 30-2 14 3 21 0 1 1 3v1q-28-3-53-22-8-5-8-7 0-1 4-5t9-12 11-18 9-26 4-33q0-62-49-105t-121-44q-50 0-99 28-11-18-11-38 0-35 26-52 9-6 17-6t72-2q84-1 108-6 61-9 96-41 39-39 39-98 0-67-78-103-60-31-142-31-83 0-143 31-78 35-78 100 0 36 21 60t42 33l11 6q-36 31-36 84 0 47 29 85-44 44-44 99 0 63 50 106t121 44q51 0 95-26l11-7zm-30-66q-5 28-26 44t-52 17q-29 0-50-16t-26-45q-3-17-3-51 0-44 7-65t30-35q17-10 43-10 22 0 38 7t23 18 11 20 5 15q3 16 3 50t-3 51zM403-75q0 25-14 41t-41 23-49 9-54 2h-27q-67 0-80-6-20-9-31-28T95-74q0-10 6-23t21-30 48-28 80-12q69 0 111 28t42 64z"/><path id="d" stroke-width="1" d="M33 157q0 101 76 192t171 92q51 0 90-49 16 30 46 30 13 0 23-8t10-20q0-13-37-160T374 68q0-25 7-33t21-9q9 1 20 9 21 20 41 96 6 20 10 21 2 1 10 1h4q19 0 19-9 0-6-5-27t-20-54-32-50Q436 0 417-8q-8-2-24-2-34 0-57 15t-30 31l-6 15q-1 1-4-1l-4-4q-59-56-120-56-55 0-97 40T33 157zm318 171q0 6-5 22t-23 35-46 20q-35 0-67-31t-50-81q-29-79-41-164v-11q0-8-1-12 0-45 18-62t43-18q38 0 75 33t44 51q2 4 27 107t26 111z"/><path id="e" stroke-width="1" d="M73 647q0 10 4 23t12 13q1 0 72 5t73 6q12 0 12-9t-34-143q-8-34-17-70t-15-54l-4-19q0-3 6 3 49 40 101 40 62 0 100-46t39-116q0-111-79-201T173-11q-50 0-91 38T40 150v9q0 21 8 58t49 197q50 197 50 209t-38 14H83q-3 0-7 3t-3 7zm263-322v6q0 74-61 74-17 0-35-8t-33-21-26-24-18-22l-6-8-21-86q-22-86-22-122 0-48 24-72 16-16 40-16 33 0 67 32 25 23 40 56t33 105q18 72 18 106z"/><path id="f" stroke-width="1" d="M56 347q0 13 14 20h637q15-8 15-20 0-11-14-19l-318-1H72q-16 5-16 20zm0-194q0 15 16 20h636q14-10 14-20 0-13-15-20H70q-14 7-14 20z"/><path id="g" stroke-width="1" d="M78 250q0 24 17 42t43 18q24 0 42-16t19-43q0-25-17-43t-43-18-43 17-18 43z"/><path id="h" stroke-width="1" d="M34 159q0 109 86 196t186 87q56 0 88-24t33-63q0-29-19-49t-48-21q-19 0-30 10t-11 30 11 34 22 21 14 6h1q0 2-6 6t-21 8-34 4q-30 0-57-14-21-9-43-31-44-44-64-124t-21-116q0-46 26-69 22-24 58-24h4q112 0 185 85 9 10 12 10 4 0 13-9t10-14-9-15-29-28-45-30-64-25-80-11q-75 0-121 48T34 159z"/></defs><g fill="currentColor" stroke="currentColor" stroke-width="0" transform="scale(1 -1)"><use xlink:href="#a"/><use x="278" xlink:href="#b"/><use x="779" xlink:href="#c"/><use x="1809" y="-343" transform="scale(.707)" xlink:href="#d"/><use x="1920" xlink:href="#e"/><use x="2627" xlink:href="#f"/><path stroke="none" d="M3803 220h5575v60H3803z"/><g transform="translate(3863 726)"><use xlink:href="#a"/><use x="278" xlink:href="#b"/><use x="779" xlink:href="#c"/><use x="1809" y="-343" transform="scale(.707)" xlink:href="#d"/><use x="1920" xlink:href="#e"/><use x="2572" xlink:href="#g"/><g transform="translate(3073)"><use xlink:href="#a"/><use x="278" xlink:href="#b"/><use x="779" xlink:href="#c"/><use x="1809" y="-343" transform="scale(.707)" xlink:href="#h"/></g><use x="4925" xlink:href="#d"/></g><g transform="translate(5399 -686)"><use xlink:href="#a"/><use x="278" xlink:href="#b"/><use x="779" xlink:href="#c"/><use x="1809" y="-343" transform="scale(.707)" xlink:href="#h"/><use x="1852" xlink:href="#d"/></g><use x="9777" xlink:href="#f"/><path stroke="none" d="M10952 220h4312v60h-4312z"/><g transform="translate(11012 726)"><use xlink:href="#a"/><use x="278" xlink:href="#b"/><use x="779" xlink:href="#c"/><use x="1809" y="-343" transform="scale(.707)" xlink:href="#h"/><g transform="translate(1852)"><use xlink:href="#d"/><g transform="translate(529 362)"><use transform="scale(.707)" xlink:href="#a"/><use x="278" transform="scale(.707)" xlink:href="#b"/><use x="779" transform="scale(.707)" xlink:href="#c"/><use x="1809" y="-343" transform="scale(.5)" xlink:href="#d"/><use x="1989" transform="scale(.707)" xlink:href="#e"/></g></g></g><g transform="translate(11917 -686)"><use xlink:href="#a"/><use x="278" xlink:href="#b"/><use x="779" xlink:href="#c"/><use x="1809" y="-343" transform="scale(.707)" xlink:href="#h"/><use x="1852" xlink:href="#d"/></g><use x="15663" xlink:href="#f"/><g><path stroke="none" d="M16839 220h2502v60h-2502z"/><g transform="translate(16949 726)"><use xlink:href="#a"/><use x="278" xlink:href="#b"/><use x="779" xlink:href="#c"/><use x="1809" y="-343" transform="scale(.707)" xlink:href="#h"/><use x="1852" xlink:href="#e"/></g><g transform="translate(16899 -686)"><use xlink:href="#a"/><use x="278" xlink:href="#b"/><use x="779" xlink:href="#c"/><use x="1809" y="-343" transform="scale(.707)" xlink:href="#h"/><use x="1852" xlink:href="#d"/></g></g></g></svg>